/* XPM */
static char *_574379934547[] = {
/* columns rows colors chars-per-pixel */
"32 32 9 1 ",
"  c #733F31",
". c #7C4536",
"X c #8F503F",
"o c #9B5643",
"O c #B1624D",
"+ c #8B6E67",
"@ c #C66851",
"# c #A2867D",
"$ c #A9948D",
/* pixels */
"O@@OOOo+@@OOO@OO@@@OOOo#@@@OOOOO",
"ooooooX+.XooooooooooooX#.ooooooo",
"ooXoooX#.XoXXoooooooooX#.oXoooXo",
"oXXoooX#.XXXoXoXooXoXoX#.oXoXooo",
"oooXooX$.XXoXXoooXXoXoX#.oXXoooo",
"ooooooX$.XoXooooooooooX#.ooooooo",
"  ..   $  .XX..XX...   #  XXX.. ",
"++++##$$##++++++++####$$##++++++",
"@@OO@@@OOooO@@o#@@OO@@OOooO@@Oo+",
".ooooooooooooX.#.oXXXXXXXXXXXX.+",
".oXXoXoooXXXoX.#.oXXXXXXXXXXXX.#",
".oXoXXXXXooooX.#.XooXXoooXXoXX.#",
".ooXXXoXooXooX.$.XoXooXXoooXXX.#",
".ooXXoooooXXoX.$.XXXXXXXXXXXXX.#",
".XXXoo...XXX.. $  ..XX..XXX... $",
"##++++++++####$$####++++++++##$$",
"OooOOOo#@@OoO@@OoooO@@o#@@O@@@OO",
"ooooooX#Xooooooooooooo.#Xooooooo",
"oXooXoX#XoXoooooXXoooo.#Xooooooo",
"oXXXooX#XoXXoXoXXXXXoo.#XooXXooo",
"ooXoooX#XoXXXXoooXoXXo.$XooXoXoo",
"ooooooX#Xooooooooooooo.$Xooooooo",
".XX... #.....XXX...XX. $..XXX...",
"++####$$##++++++++++##$$##++++++",
"oOO@@OOOOoooOOo+@OO@@OOoooOOOOo#",
".oooooooooooooX+Xooooooooooooo.#",
".oXXoXXoooooooX#XooooooXXXoooo.#",
".ooXXooXXXooooX#XooXXXXXooooXo.#",
".oooXXXoooooooX$XXXXXoooXXoooo.$",
".ooooooooooXXoX$XooooXXXXooooo.$",
" ..  .....   . $ .....    .... $",
"##++++++++++##$$####++++++##$$$$"
};
