/* XPM */
static char *_587464182864[] = {
/* columns rows colors chars-per-pixel */
"100 85 2 1 ",
"  c #49A0D9",
". c None",
/* pixels */
"....................................................................................................",
"................................................................................................  ..",
"...............................................................................................  ...",
"............................................................................................    ....",
"..........................................................................................     .....",
"........................................................................................      ......",
"......................................................................................      ........",
"....................................................................................       .........",
"..................................................................................        ..........",
"...............................................................................          ...........",
".............................................................................           ............",
"...........................................................................            .............",
".........................................................................            ...............",
".......................................................................             ................",
".....................................................................              .................",
"..................................................................                ..................",
"................................................................                 ...................",
"..............................................................                 .....................",
"............................................................                  ......................",
"..........................................................                   .......................",
"........................................................                    ........................",
".....................................................                      .........................",
"...................................................                      ...........................",
".................................................                       ............................",
"...............................................                        .............................",
".............................................                         ..............................",
"...........................................                          ...............................",
"........................................                            ................................",
"......................................                            ..................................",
"....................................                             ...................................",
"..................................                              ....................................",
"................................                               .....................................",
"..............................                                ......................................",
"...........................                                 ........................................",
"..........................                                  ........................................",
"..........................                                  ........................................",
"...........................                                  .......................................",
"...........................                                  .......................................",
"............................                                  ......................................",
"............................                                  ......................................",
".............................                                  .....................................",
".............................                                   ....................................",
"..............................                                  ....................................",
"..............................                                   ...................................",
"...............................                                  ...................................",
"...............................                                   ..................................",
"................................                                   .................................",
"................................                                   .................................",
".................................                                   ................................",
".................................                                   ................................",
"..................................                                   ...............................",
"..................................                                    ..............................",
".................................                                     ..............................",
"................................                                       .............................",
"...............................                                       ..............................",
"..............................                                      ................................",
".............................                                     ..................................",
"............................                                   .....................................",
"...........................                                  .......................................",
"..........................                                 .........................................",
".........................                               ............................................",
"........................                              ..............................................",
".......................                             ................................................",
"......................                            ..................................................",
".....................                          .....................................................",
"....................                         .......................................................",
"...................                        .........................................................",
"..................                      ............................................................",
".................                     ..............................................................",
"................                    ................................................................",
"...............                  ...................................................................",
"..............                 .....................................................................",
".............                .......................................................................",
"............               .........................................................................",
"...........             ............................................................................",
"..........            ..............................................................................",
".........           ................................................................................",
"........         ...................................................................................",
".......        .....................................................................................",
"......       .......................................................................................",
".....     ..........................................................................................",
"....    ............................................................................................",
"..    ..............................................................................................",
".   ................................................................................................",
". .................................................................................................."
};
